# xmcd
#
# Track frame offsets:
#       150
#       12637
#       26015
#       43520
#       59012
#       72857
#       84950
#       98162
#       117320
#
# Disc length: 1762 seconds
#
# Revision: 2
# Processed by: cddbd v1.4PL0 Copyright (c) Steve Scherf et al.
# Submitted via: MusiCat 1.1b1
#
DISCID=7406e009
DTITLE=Dolly Parton - Best There Is
DYEAR=1900
DGENRE=
TTITLE0=9 to 5 
TTITLE1=Here You Come Again 
TTITLE2=Do I Ever Cross Your Mind 
TTITLE3=Think About Love
TTITLE4=Coat of Many Colors 
TTITLE5=Jolene 
TTITLE6=I Will Always Love You
TTITLE7=Appalachian Memories 
TTITLE8=But You Know I Love You 
EXTD=0\n\n\n
EXTT0=
EXTT1=
EXTT2=
EXTT3=
EXTT4=
EXTT5=
EXTT6=
EXTT7=
EXTT8=
PLAYORDER=
